<svg width="22" height="22" viewBox="0 0 22 22" fill="none" xmlns="http://www.w3.org/2000/svg">
<path fill-rule="evenodd" clip-rule="evenodd" d="M21.3878 0.468054C21.5674 0.628469 21.7137 0.822724 21.8183 1.03971C21.9228 1.2567 21.9836 1.49217 21.9971 1.73266C22.0106 1.97315 21.9766 2.21394 21.897 2.44127C21.8174 2.6686 21.6938 2.87802 21.5332 3.05754L10.5356 15.2779C10.4631 15.3606 10.381 15.4344 10.2912 15.4978C10.2856 16.5883 9.99496 17.6584 9.44803 18.6018C9.21552 19.0065 8.92761 19.3767 8.59266 19.7016C5.90435 22.4023 0.614493 22.4512 0.0389505 21.2414C-0.144343 20.8381 0.307781 20.5448 1.63972 18.2474C3.22826 15.4734 3.35046 14.5813 4.02253 13.9092C4.14351 13.7833 4.27914 13.6721 4.42578 13.5792C5.41133 12.8995 6.60803 12.596 7.79838 12.7238L7.84726 12.7727L18.796 0.613476C18.9564 0.433438 19.1508 0.286831 19.368 0.182053C19.5852 0.0772753 19.821 0.0163875 20.0617 0.00287838C20.3025 -0.0106307 20.5435 0.0235045 20.7711 0.103328C20.9986 0.183151 21.2082 0.307094 21.3878 0.468054Z" fill="#404040"/>
</svg>
