<svg width="36" height="36" viewBox="0 0 36 36" fill="none" xmlns="http://www.w3.org/2000/svg">
<path fill-rule="evenodd" clip-rule="evenodd" d="M4.875 3.41667C4.06959 3.41667 3.41667 4.06959 3.41667 4.875V9.25C3.41667 10.0554 4.06959 10.7083 4.875 10.7083H9.25C10.0554 10.7083 10.7083 10.0554 10.7083 9.25V4.875C10.7083 4.06959 10.0554 3.41667 9.25 3.41667H4.875ZM4.875 0.5H9.25C11.6662 0.5 13.625 2.45876 13.625 4.875V9.25C13.625 11.6662 11.6662 13.625 9.25 13.625H4.875C2.45876 13.625 0.5 11.6662 0.5 9.25V4.875C0.5 2.45876 2.45876 0.5 4.875 0.5ZM20.9167 23.8333H31.125C33.5413 23.8333 35.5 25.792 35.5 28.2083V31.125C35.5 33.5413 33.5413 35.5 31.125 35.5H20.9167C18.5004 35.5 16.5417 33.5413 16.5417 31.125V28.2083C16.5417 25.792 18.5004 23.8333 20.9167 23.8333ZM20.9167 26.75C20.1112 26.75 19.4583 27.4029 19.4583 28.2083V31.125C19.4583 31.9304 20.1112 32.5833 20.9167 32.5833H31.125C31.9304 32.5833 32.5833 31.9304 32.5833 31.125V28.2083C32.5833 27.4029 31.9304 26.75 31.125 26.75H20.9167ZM4.875 16.5417H9.25C11.6662 16.5417 13.625 18.5004 13.625 20.9167V31.125C13.625 33.5413 11.6662 35.5 9.25 35.5H4.875C2.45876 35.5 0.5 33.5413 0.5 31.125V20.9167C0.5 18.5004 2.45876 16.5417 4.875 16.5417ZM4.875 19.4583C4.06959 19.4583 3.41667 20.1112 3.41667 20.9167V31.125C3.41667 31.9304 4.06959 32.5833 4.875 32.5833H9.25C10.0554 32.5833 10.7083 31.9304 10.7083 31.125V20.9167C10.7083 20.1112 10.0554 19.4583 9.25 19.4583H4.875ZM31.125 0.5C33.5413 0.5 35.5 2.45876 35.5 4.875V16.5417C35.5 18.958 33.5413 20.9167 31.125 20.9167H20.9167C18.5004 20.9167 16.5417 18.958 16.5417 16.5417V4.875C16.5417 2.45876 18.5004 0.5 20.9167 0.5H31.125ZM19.4583 4.875V16.5417C19.4583 17.3471 20.1112 18 20.9167 18H31.125C31.9304 18 32.5833 17.3471 32.5833 16.5417V4.875C32.5833 4.06959 31.9304 3.41667 31.125 3.41667H20.9167C20.1112 3.41667 19.4583 4.06959 19.4583 4.875Z" fill="#404040"/>
</svg>
