<svg width="36" height="36" viewBox="0 0 36 36" fill="none" xmlns="http://www.w3.org/2000/svg">
<path d="M30 8.40015C30 7.56008 29.9994 7.13971 29.8359 6.81885C29.6922 6.53661 29.4635 6.30731 29.1813 6.16349C28.8605 6 28.4395 6 27.5994 6H8.39941C7.55934 6 7.13971 6 6.81885 6.16349C6.53661 6.30731 6.30731 6.53661 6.16349 6.81885C6 7.13971 6 7.56008 6 8.40015V9.50604C6 9.87292 6 10.0565 6.04144 10.2291C6.07819 10.3822 6.13894 10.5284 6.22119 10.6626C6.31392 10.8139 6.44387 10.9439 6.70312 11.2031L14.2972 18.7972C14.5566 19.0566 14.6857 19.1856 14.7784 19.3371C14.8607 19.4712 14.9222 19.6179 14.959 19.7711C15 19.9419 15 20.1233 15 20.4828V27.6165C15 28.9023 15 29.5457 15.2708 29.9328C15.5073 30.2709 15.8721 30.4965 16.2803 30.5568C16.7477 30.6258 17.3231 30.3385 18.4731 29.7636L19.6731 29.1636C20.1548 28.9228 20.3949 28.8019 20.5708 28.6222C20.7264 28.4634 20.8455 28.2728 20.918 28.0626C21 27.8249 21 27.555 21 27.0165V20.4939C21 20.127 21 19.9437 21.0414 19.7711C21.0782 19.6179 21.1389 19.4712 21.2213 19.3371C21.3134 19.1867 21.442 19.058 21.6979 18.8021L21.7032 18.7972L29.2972 11.2031C29.5566 10.9437 29.6856 10.814 29.7785 10.6626C29.8607 10.5284 29.9223 10.3822 29.9591 10.2291C30 10.0583 30 9.87666 30 9.5172V8.40015Z" stroke="#404040" stroke-width="4" stroke-linecap="round" stroke-linejoin="round"/>
</svg>
