<svg width="36" height="40" viewBox="0 0 36 40" fill="none" xmlns="http://www.w3.org/2000/svg">
<path d="M30.1407 33.6519C31.0946 33.6519 31.8751 34.4323 31.8751 35.3862C31.875 36.3401 31.0946 37.1206 30.1407 37.1206H5.85945C4.90555 37.1206 4.12512 36.3401 4.12507 35.3862C4.12507 34.4323 4.90552 33.6519 5.85945 33.6519H30.1407ZM17.9893 2.87939C18.9432 2.87939 19.7237 3.65986 19.7237 4.61377V24.7114L29.046 15.4321C29.7181 14.7601 30.8241 14.7601 31.4962 15.4321C32.1683 16.1042 32.1683 17.2102 31.4962 17.8823L19.2247 30.1528C19.1597 30.2395 19.0516 30.3046 18.9649 30.3696C18.9216 30.3913 18.8784 30.4134 18.835 30.4351C18.77 30.4567 18.7262 30.5003 18.6612 30.522C18.5964 30.5435 18.5531 30.5434 18.4884 30.5649C18.445 30.5866 18.3794 30.6079 18.336 30.6079C18.206 30.6296 18.1194 30.6519 17.9893 30.6519C17.8593 30.6519 17.751 30.6296 17.6427 30.6079C17.5776 30.6079 17.5337 30.5866 17.4903 30.5649C17.4255 30.5433 17.3823 30.5211 17.3175 30.4995C17.2524 30.4778 17.2087 30.4353 17.1436 30.4136C17.1003 30.3919 17.0571 30.3698 17.0137 30.3481C16.9271 30.2832 16.8406 30.218 16.754 30.1313L4.50398 17.8608C3.83195 17.1888 3.83206 16.0827 4.50398 15.4106C5.17607 14.7386 6.28209 14.7386 6.95418 15.4106L16.255 24.7114V4.61377C16.255 3.65986 17.0354 2.8794 17.9893 2.87939Z" fill="#404040"/>
</svg>
