<svg width="113" height="120" viewBox="0 0 113 120" fill="none" xmlns="http://www.w3.org/2000/svg">
<path d="M65.245 2.47501C62.6079 0.877112 59.5834 0.0322876 56.5 0.0322876C53.4166 0.0322876 50.3921 0.877112 47.755 2.47501L8.38 26.34C5.89873 27.8435 3.84699 29.9613 2.42288 32.489C0.99877 35.0166 0.250391 37.8688 0.25 40.77V79.23C0.250391 82.1312 0.99877 84.9834 2.42288 87.5111C3.84699 90.0387 5.89873 92.1565 8.38 93.66L47.755 117.525C50.3921 119.123 53.4166 119.968 56.5 119.968C59.5834 119.968 62.6079 119.123 65.245 117.525L104.62 93.66C107.101 92.1565 109.153 90.0387 110.577 87.5111C112.001 84.9834 112.75 82.1312 112.75 79.23V40.77C112.75 37.8688 112.001 35.0166 110.577 32.489C109.153 29.9613 107.101 27.8435 104.62 26.34L65.245 2.47501Z" fill="#D0F976"/>
<path d="M95.383 43.958L92.133 35.833C92.0527 35.6322 91.9332 35.4494 91.7814 35.2954C91.6296 35.1413 91.4486 35.0192 91.249 34.936L81.499 30.8735C81.252 30.7708 80.9834 30.7306 80.7172 30.7566C80.4509 30.7826 80.1952 30.8739 79.9727 31.0224C79.7502 31.171 79.5678 31.3721 79.4418 31.6081C79.3157 31.844 79.2498 32.1075 79.25 32.375V39.1155L68.0115 53.1522C66.9434 54.4901 65.4792 55.4555 63.8288 55.9103C62.1784 56.3651 60.4264 56.2859 58.8237 55.684L57.6147 55.229C57.3938 55.145 57.1572 55.1102 56.9215 55.127C56.6857 55.1439 56.4565 55.2119 56.2498 55.3265L49.8733 58.869C49.6289 59.004 49.4235 59.1997 49.2768 59.4371C49.1301 59.6746 49.047 59.9458 49.0356 60.2247C49.0241 60.5036 49.0847 60.7808 49.2115 61.0294C49.3383 61.2781 49.5271 61.4899 49.7595 61.6445C50.1315 61.8948 50.4287 62.2413 50.6195 62.6471C50.8102 63.0529 50.8873 63.5028 50.8427 63.949C50.798 64.3952 50.6331 64.8209 50.3657 65.1808C50.0983 65.5407 49.7383 65.8214 49.324 65.993L27.484 74.9955L20.2755 67.787C20.0482 67.5591 19.7584 67.4039 19.4428 67.341C19.1272 67.278 18.8 67.3102 18.5027 67.4334C18.2055 67.5567 17.9515 67.7654 17.7729 68.0332C17.5944 68.3009 17.4994 68.6157 17.5 68.9375V77.992C17.5002 78.2169 17.5471 78.4394 17.6377 78.6452C17.7284 78.8511 17.8607 79.0359 18.0265 79.188L24.7215 85.3402C27.3461 87.7387 30.7731 89.0685 34.3285 89.068C35.2407 89.0676 36.1506 88.9783 37.0455 88.8015L84.4402 79.4675C84.7313 79.4094 85.001 79.2726 85.2198 79.0721C85.4387 78.8715 85.5984 78.6149 85.6817 78.33L95.4317 45.0175C95.5365 44.6691 95.5193 44.2953 95.383 43.958ZM31.566 85.441L29.3658 77.7385L50.5623 68.996C51.3277 68.6793 52.0154 68.2005 52.5782 67.5927C53.141 66.9849 53.5655 66.2623 53.8224 65.4748C54.0794 64.6873 54.1627 63.8535 54.0667 63.0307C53.9707 62.2079 53.6976 61.4157 53.2663 60.7085L57.176 58.5375L57.6797 58.7227C59.9237 59.5714 62.3791 59.6856 64.6921 59.0489C67.0051 58.4123 69.0562 57.0576 70.5497 55.1802L81.9085 40.9972L92.107 44.8225L82.8445 76.471L36.415 85.6165C34.806 85.923 33.1486 85.863 31.566 85.441ZM20.75 72.8602L25.95 78.0602C25.9923 78.1025 26.0573 78.1057 26.1028 78.1415L27.6173 83.4487C27.3898 83.27 27.133 83.1432 26.9185 82.9482L20.75 77.277V72.8602ZM89.3705 37.6757L90.6185 40.7957L82.5 37.7505V34.8125L89.3705 37.6757Z" fill="black" stroke="black" stroke-width="0.00213333"/>
<path d="M17.5 21H95.5V99H17.5V21Z" stroke="black" stroke-width="0.00213333"/>
</svg>
