<svg width="28" height="28" viewBox="0 0 28 28" fill="none" xmlns="http://www.w3.org/2000/svg">
<path d="M16 10.5518C16 11.6563 16.8954 12.5518 18 12.5518H26C27.1046 12.5518 28 13.4472 28 14.5518C28 15.6563 27.1046 16.5518 26 16.5518H18C16.8954 16.5518 16 17.4472 16 18.5518V26C16 27.1046 15.1046 28 14 28C12.8954 28 12 27.1046 12 26V18.5518C12 17.4472 11.1046 16.5518 10 16.5518H2C0.895431 16.5518 0 15.6563 0 14.5518C0 13.4472 0.895431 12.5518 2 12.5518H10C11.1046 12.5518 12 11.6563 12 10.5518V2C12 0.895431 12.8954 0 14 0C15.1046 0 16 0.895431 16 2V10.5518Z" fill="#404040"/>
</svg>
