<svg width="50" height="50" viewBox="0 0 50 50" fill="none" xmlns="http://www.w3.org/2000/svg">
<path d="M0 25C0 11.1929 11.1929 0 25 0C38.8071 0 50 11.1929 50 25C50 38.8071 38.8071 50 25 50C11.1929 50 0 38.8071 0 25Z" fill="white"/>
<path d="M27 21.4482C27 22.5528 27.8954 23.4482 29 23.4482H38C39.1046 23.4482 40 24.3437 40 25.4482C40 26.5528 39.1046 27.4482 38 27.4482H29C27.8954 27.4482 27 28.3437 27 29.4482V38C27 39.1046 26.1046 40 25 40C23.8954 40 23 39.1046 23 38V29.4482C23 28.3437 22.1046 27.4482 21 27.4482H12C10.8954 27.4482 10 26.5528 10 25.4482C10 24.3437 10.8954 23.4482 12 23.4482H21C22.1046 23.4482 23 22.5528 23 21.4482V12C23 10.8954 23.8954 10 25 10C26.1046 10 27 10.8954 27 12V21.4482Z" fill="#404040"/>
</svg>
