<svg width="38" height="32" viewBox="0 0 38 32" fill="none" xmlns="http://www.w3.org/2000/svg">
<path d="M1.5 30H36.5" stroke="#404040" stroke-width="3" stroke-linecap="round" stroke-linejoin="round"/>
<path d="M6.75 30V9.35C6.75 9.25717 6.78687 9.16815 6.85251 9.10251C6.91815 9.03687 7.00717 9 7.1 9H11.65C11.7428 9 11.8318 9.03687 11.8975 9.10251C11.9631 9.16815 12 9.25717 12 9.35V30" stroke="#404040" stroke-width="3" stroke-linecap="round" stroke-linejoin="round"/>
<path d="M17.25 30V2.46667C17.25 2.20893 17.4067 2 17.6 2H22.15C22.3433 2 22.5 2.20893 22.5 2.46667V30" stroke="#404040" stroke-width="3" stroke-linecap="round" stroke-linejoin="round"/>
<path d="M27.75 30V14.5125C27.75 14.3675 27.9067 14.25 28.1 14.25H32.65C32.8433 14.25 33 14.3675 33 14.5125V30" stroke="#404040" stroke-width="3" stroke-linecap="round" stroke-linejoin="round"/>
</svg>
